<svg xmlns="http://www.w3.org/2000/svg" version="1.1" xmlns:xlink="http://www.w3.org/1999/xlink" xmlns:svgjs="http://svgjs.dev/svgjs" viewBox="0 0 800 800" opacity="1"><defs><linearGradient x1="50%" y1="0%" x2="50%" y2="100%" id="uundulate-grad"><stop stop-color="hsl(105, 69%, 40%)" stop-opacity="1" offset="45%"></stop><stop stop-color="hsl(105, 69%, 60%)" stop-opacity="1" offset="100%"></stop></linearGradient></defs><g stroke-width="2" stroke="url(#uundulate-grad)" fill="none"><path d="M749.2671547477171 121.72204923771915C772.5615758532003 191.2938855509634 641.1998675899043 366.851741120571 573.1549548449384 496.8570167830446C505.1100420999726 626.8622924455183 511.5051578611842 721.1345165620371 422.65157357188014 745.7473724175918C333.7979892825758 770.3602282731467 224.35731072249962 702.570499786023 146.65775025627897 614.9987248897081C68.95818979005827 527.4269499933931 40.39036555620555 442.10540530150536 49.69368333401991 325.4028529152795C58.99700111183421 208.7003005290535 105.55366513049546 88.67869227661691 191.3136755897873 54.8264734358238C277.07368604907913 20.974254595030743 345.1014253807177 148.97562418741 461.3417335386199 162.91220247947166C577.5820416965222 176.8487807715333 725.972733642234 52.15021292447483 749.2671547477171 121.72204923771915C772.5615758532003 191.2938855509634 641.1998675899043 366.851741120571 573.1549548449384 496.8570167830446 "></path><path d="M738.3525838184062 130.41825045782946C760.9190542643428 197.81596688628485 633.662399384275 367.8876394693423 567.7438901625893 493.8302502673637C501.82538094090364 619.772861065385 508.02064933457746 711.0990781782624 421.9437395543139 734.942782288331C335.86682977405053 758.7864863983998 229.84617241897672 693.1151869264988 154.5747232173254 608.2800299956938C79.3032740156741 523.4448730648886 51.62819428912934 440.78962664462233 60.64078338638694 327.7340290204661C69.6533724836446 214.67843139630963 114.75514075172265 98.4074984017617 197.83515088416164 65.61316139974338C280.91516101660056 32.81882439772505 346.81703349412544 156.82015119034247 459.42483202209326 170.3212114107772C572.0326305500611 183.82227163121195 715.7861133724695 63.02053402937406 738.3525838184062 130.41825045782946C760.9190542643428 197.81596688628485 633.662399384275 367.8876394693423 567.7438901625893 493.8302502673637 "></path><path d="M727.4379518539389 139.11445167793983C749.2764716403294 204.33804822160636 626.1248701434895 368.9235378181136 562.3327644450839 490.8034837516825C498.54065874667845 612.6834296852516 504.5360797728142 701.0636397944879 421.2358445015916 724.1381921590705C337.935609230369 747.2127445236531 235.33497308029752 683.6598740669747 162.4916351432156 601.5613351016794C89.64829720613375 519.4627961363842 62.86596198689682 439.4738479877394 71.58782240359778 330.0652051256526C80.30968282029869 220.65656226356577 123.95655533779359 108.13630452690649 204.35656514337973 76.39984936366295C284.75657494896575 44.66339420041942 348.5325805723769 164.664678193275 457.50786947041024 177.73022034208282C566.4831583684436 190.79576249089064 705.5994320675485 73.8908551342733 727.4379518539389 139.11445167793983C749.2764716403294 204.33804822160636 626.1248701434895 368.9235378181136 562.3327644450839 490.8034837516825 "></path><path d="M716.523380924628 147.8106528980502C737.633950051472 210.8601295569278 618.58740193786 369.95943616688464 556.9216997627348 487.77671723600145C495.2559975876094 605.5939983051182 501.05157124620746 691.0282014107133 420.5280104840256 713.3336020298099C340.0044497218437 735.6390026489064 240.82383477677456 674.2045612074506 170.4086081042621 594.8426402076652C99.99338143174958 515.4807192078797 74.10379071982061 438.1580693308565 82.53492245596482 332.3963812308392C90.96605419210903 226.63469313082192 133.15803095902078 117.86511065205127 210.87804043775395 87.18653732758253C288.5980499164872 56.507964003113784 350.2481886857847 172.50920519620752 455.5909679538836 185.13922927338837C560.9337472219825 197.76925335056927 695.4128117977839 84.76117623917253 716.523380924628 147.8106528980502C737.633950051472 210.8601295569278 618.58740193786 369.95943616688464 556.9216997627348 487.77671723600145 "></path><path d="M705.6087489601607 156.50679308300425C725.9913674274585 217.382149857093 611.0498726970745 370.9952734804997 551.5105740452293 484.74988968516413C491.9712753933842 598.5045058898286 497.56700168444445 680.9927019917825 419.8201154313033 702.5289508653929C342.07322917816214 724.0651997390033 246.3126354380954 664.7491873127702 178.3255200301523 588.1238842784946C110.33840462220917 511.49858124421905 85.34155841758809 436.84222963881723 93.4819614731756 334.7274963008696C101.62236452876317 232.61276296292186 142.35944554509172 127.5938557420398 217.39945469697204 97.97316425634585C292.43946384885237 68.3524727706519 351.9637357640362 180.3536711639838 453.6740054022007 192.54817716953772C555.3842750403651 204.74268317509166 685.226130492863 95.63143630891551 705.6087489601607 156.50679308300425C725.9913674274585 217.382149857093 611.0498726970745 370.9952734804997 551.5105740452293 484.74988968516413 "></path><path d="M694.6942085484278 165.20299430311456C714.3488763561792 223.90423119241444 603.5124350090232 372.0311718292709 546.0995398804583 481.72312316948296C488.68664475189337 591.4150745096952 494.0825236754156 670.9572636080078 419.1123119313153 691.7243607361321C344.14210018721496 712.4914578642565 251.80152765215058 655.293874453246 186.2425235087769 581.4051893844802C120.68351936540319 507.5165043157144 96.57941766808995 435.5264509819342 104.42909204312082 337.0586724060561C112.27876641815163 238.59089383017795 151.56095168389703 137.3226618671846 223.9209605089245 108.75985222026543C296.28096933395204 80.19704257334621 353.679374395022 188.19819816691626 451.75713440325217 199.95718610084327C549.8348944114821 211.7161740347703 675.0395407406764 106.50175741381469 694.6942085484278 165.20299430311456C714.3488763561792 223.90423119241444 603.5124350090232 372.0311718292709 546.0995398804583 481.72312316948296 "></path><path d="M683.7795460663824 173.89919552322493C702.7062632145875 230.42631252773594 595.9748752506596 373.06707017804206 540.6883836453749 478.696356653802C485.40189204008993 584.3256431295617 490.59792359607445 660.9218252242332 418.40438636101476 680.9197706068715C346.2108491259552 700.9177159895097 257.29029779589325 645.8385615937218 194.15940491708898 574.686494490466C131.02851203828465 503.53442738721003 107.81715484827936 434.2106723250513 115.37610054275348 339.3898485112427C122.9350462372276 244.5690246974341 160.76233575238984 147.05146799232938 230.44234425056447 119.546540184185C300.1223527487391 92.04161237604058 355.3948909556955 196.04272516984872 449.8401413339909 207.36619503214888C544.2853917122866 218.68966489444892 664.8528289181775 117.37207851871392 683.7795460663824 173.89919552322493C702.7062632145875 230.42631252773594 595.9748752506596 373.06707017804206 540.6883836453749 478.696356653802 "></path><path d="M672.8649446194934 182.59539674333524C691.063711108152 236.9483938630574 588.4373765274522 374.10296852681336 535.2772884454475 475.66959013812084C482.11720036344286 577.2362117494283 487.11338455188957 650.8863868404586 417.6965218258706 670.1151804776108C348.27965909985176 689.343974114763 262.77912897479223 636.3832487341977 202.0763473605573 567.9677995964516C141.37356574632236 499.55235045870563 119.05495306362496 432.89489366816827 126.32317007754239 341.7210246164293C133.59138709145986 250.54715556469023 169.9637808560389 156.78027411747416 236.9637890273607 130.33322814810452C303.9637971986824 103.88618217873494 357.11046855152506 203.88725217278125 447.92320929988614 214.77520396345443C538.7359500482473 225.66315575412762 654.6661781308346 128.24239962361315 672.8649446194934 182.59539674333524C691.063711108152 236.9483938630574 588.4373765274522 374.10296852681336 535.2772884454475 475.66959013812084 "></path><path d="M661.9503736901823 191.29153692828936C679.4211895192947 243.47041416322259 580.8999083218227 375.1388058404283 529.8662237630983 472.6427625872835C478.8325392043739 570.1467193341389 483.6288760252827 640.8508874215279 416.9886878083046 659.3105293131939C350.34849959132646 677.7701712048599 268.2679906712693 626.9278748395174 209.99332032160373 561.2490436672811C151.71864997193825 495.57021249504487 130.2927817965487 431.579053976129 137.27027012990948 344.05213968645955C144.2477584632702 256.5252253967901 179.1652564772661 166.5090192074627 243.48526432173497 141.11985507686785C307.80527216620385 115.73069094627306 358.82607666493277 211.73171814055752 446.0063077833595 222.18415185960373C533.1865389017862 232.63658557865 644.4795578610701 139.11265969335614 661.9503736901823 191.29153692828936C679.4211895192947 243.47041416322259 580.8999083218227 375.1388058404283 529.8662237630983 472.6427625872835 "></path><path d="M651.0358027608714 199.98775340718873C667.7786679304373 249.9925107573331 573.3624401161935 376.17471944798854 524.4551590807491 469.61601133039153C475.54787804530497 563.0573032127944 480.1443674986758 630.8154642965422 416.28085379073855 648.5059544427222C352.41734008280116 666.1964445889022 273.7568523677463 617.4725772387822 217.91029328265023 554.5303640320558C162.06373419755408 491.5881508253294 141.53061052947248 430.26329057803514 148.2173701822765 346.38333105043523C154.90412983508054 262.5033715228353 188.3667320984933 176.23784059139655 250.00673961610931 151.9065582995765C311.6467471337253 127.57527600775643 360.5416847783406 219.57626040227905 444.08940626683284 229.5931760496984C527.6371277553251 239.6100916971177 634.2929375913054 149.98299605704443 651.0358027608714 199.98775340718873C667.7786679304373 249.9925107573331 573.3624401161935 376.17471944798854 524.4551590807491 469.61601133039153 "></path><path d="M640.1212013139823 208.68392410972098C656.1361158240019 256.5145615750764 565.8249413929859 377.2105872791817 519.044063880822 466.58921429713234C472.2631863686579 555.967841315083 476.65982845449093 620.7799953951895 415.5729892555943 637.7013337958834C354.4861500566976 654.6226721965774 279.2456835466453 608.0172338616799 225.82723572611854 547.8116386204633C172.4087879055918 487.6060433792468 152.7684087448181 428.9474814035741 159.16443971706542 348.7144766380437C165.5604706893128 268.48147187251334 197.56817720214235 185.9666161989632 256.52818439290553 162.69321574591794C315.4881915836686 139.41981529287267 362.2572623741702 227.42075688763344 442.17247423272795 237.00215446342582C522.0876860912858 246.58355203921826 624.1062868039627 160.85328664436554 640.1212013139823 208.68392410972098C656.1361158240019 256.5145615750764 565.8249413929859 377.2105872791817 519.044063880822 466.58921429713234 "></path><path d="M629.2065998670931 217.38012532983134C644.4935637175664 263.03664291039786 558.2874426697786 378.2464856279529 513.6329686808947 463.5624477814513C468.9784946920108 548.8784099349496 473.17528941030594 610.744557011415 414.8651247204501 626.8967436666228C356.5549600305942 643.0489303218305 284.7345147255442 598.5619210021558 233.74417816958686 541.092943726449C182.75384161362956 483.6239664507424 164.0062069601637 427.6317027466911 170.1115092518544 351.0456527432302C176.21681154354502 274.4596027397695 206.76962230579147 195.695422324108 263.0496291697017 173.47990370983752C319.32963603361196 151.26438509556704 363.97283996999977 235.2652838905659 440.25554219862306 244.41116339473143C516.5382444272466 253.5570428988969 613.91963601662 171.72360774926472 629.2065998670931 217.38012532983134C644.4935637175664 263.03664291039786 558.2874426697786 378.2464856279529 513.6329686808947 463.5624477814513 "></path><path d="M618.2919526438368 226.07629603236353C632.8509658347638 269.5586937281412 550.7498981702038 379.28235345914595 508.2218277046002 460.535650748192C465.69375723899657 541.788948037238 469.69070458975375 600.7090881100623 414.15721440893867 616.0921230197839C358.6237242281236 631.4751579295057 290.22330012807595 589.1065776250534 241.66107483668804 534.3742183148565C193.09884954530008 479.64185900465975 175.24395939914217 426.3158935722299 181.0585330102761 353.3767983308387C186.87310662141005 280.4377030894475 215.97102163307335 205.42419793167466 269.5710281701307 184.26656115617897C323.17103470718814 163.10892438068328 365.6883717894623 243.1097803759203 438.3385643881511 251.82014180845886C510.98875698684003 260.5305032409974 603.7329394529099 182.59389833658582 618.2919526438368 226.07629603236353C632.8509658347638 269.5586937281412 550.7498981702038 379.28235345914595 508.2218277046002 460.535650748192 "></path><path d="M607.377396973315 234.77249725247384C621.2084595046955 276.0807750634626 543.2124452233636 380.31825180791725 502.81077828104003 457.5088842325109C462.4091113387167 534.6995166571046 466.20621132193605 590.6736497262876 413.4493956501617 605.2875328905234C360.69257997838736 619.901416054759 295.7121770833421 579.6512647655293 249.57806305652355 527.6555234208423C203.44394902970498 475.65978207615535 186.48180339085496 425.000114915347 192.0056483214322 355.7079744360253C197.5294932520095 286.41583395670364 225.1725125130896 215.15300405681944 276.0925187232941 195.05324912009854C327.01252493349864 174.95349418337764 367.40399516165905 250.95430737885283 436.4216781304135 259.2291507397644C505.43936109916797 267.50399410067604 593.5463344419343 193.46421944148506 607.377396973315 234.77249725247384C621.2084595046955 276.0807750634626 543.2124452233636 380.31825180791725 502.81077828104003 457.5088842325109 "></path><path d="M596.4627802676367 243.46866795500608C609.565892139471 282.602825881206 535.6749312413672 381.3541196391103 497.39966782232386 454.48208719925174C459.12440440328044 527.6100547593932 462.721657018962 580.6381808249349 412.7415158562284 594.4829122436845C362.7613746934948 608.327643662434 301.20099300345197 570.195921388427 257.4949902412028 520.9367980092499C213.7889874789537 471.6776746300727 197.71958634741156 423.68430574088586 202.9527025974321 358.03912002363376C208.18581884745265 292.39393430638165 234.3739423579496 224.8817796643861 282.6139482413012 205.83990656643994C330.8539541246529 186.79803346849383 369.1195574986996 258.7988038642072 434.5047308375197 266.6381291534919C499.88990417633954 274.47745444277655 583.3596683958026 204.33451002880616 596.4627802676367 243.46866795500608C609.565892139471 282.602825881206 535.6749312413672 381.3541196391103 497.39966782232386 454.48208719925174 "></path><path d="M585.5481940795366 252.1648691751164C597.9233552918246 289.12490721652745 528.1374477769486 382.3900179878815 491.9885878811856 451.45532068357056C455.8397279854224 520.5206233792597 459.23713323356617 570.6027424411604 412.0336665798733 583.6783221144238C364.83019992618046 596.7539017876873 306.68983944113995 560.7406085289028 265.41194794346023 514.2181031152356C224.13405644578046 467.6955977015682 208.95739982154623 422.36852708400284 213.89978739101008 360.3702961288203C218.84217496047393 298.3720651736378 243.57540272038773 234.6105857895309 289.1354082768865 216.6265945303595C334.69541383338526 198.6426032711882 370.8351503533183 266.6433308671397 432.58781406220385 274.04713808479744C494.34047777108935 281.45094530245524 573.1730328672488 215.2048311337054 585.5481940795366 252.1648691751164C597.9233552918246 289.12490721652745 528.1374477769486 382.3900179878815 491.9885878811856 451.45532068357056 "></path><path d="M574.6335926326476 260.86103987764864C586.2808031853892 295.64695803427077 520.5999490537413 383.42588581907455 486.57749268125826 448.4285236503114C452.55503630877536 513.4311614815482 455.75259418938117 560.5672735398076 411.32580204472913 572.873701467585C366.899009900077 585.1801293953624 312.1786706200389 551.2852651518006 273.32889038692855 507.4993777036432C234.47911015381817 463.71349025548557 220.19519803689184 421.0527179095418 224.846856925799 362.7014417164288C229.4985158147062 304.3501655233158 252.7768478240368 244.33936139709755 295.6568530536827 227.41325197670096C338.5368582833286 210.48714255630443 372.5507279491479 274.48782735249404 430.67088202809896 281.4561164985249C488.7910361070501 288.4244056445557 562.986382079906 226.0751217210265 574.6335926326476 260.86103987764864C586.2808031853892 295.64695803427077 520.5999490537413 383.42588581907455 486.57749268125826 448.4285236503114 "></path><path d="M563.7189911857586 269.5572105801808C574.6382510789538 302.16900885201414 513.0624503305338 384.4617536502677 481.16639748133093 445.4017266170522C449.2703446321283 506.34169958383677 452.2680551451962 550.5318046384549 410.61793750958486 562.0690808207462C368.96781987397355 573.6063570030375 317.6675017989378 541.8299217746983 281.24583283039686 500.7806522920507C244.82416386185594 459.73138280940304 231.4329962522375 419.73690873508065 235.79392646058795 365.03258730403724C240.1548566689384 310.3282658729938 261.97829292768586 254.0681370046642 302.1782978304789 238.1999094230424C342.37830273327194 222.33168184142068 374.2663055449775 282.33232383784843 428.7539499939942 288.86509491225235C483.24159444301085 295.39786598665626 552.7997312925634 236.94541230834756 563.7189911857586 269.5572105801808C574.6382510789538 302.16900885201414 513.0624503305338 384.4617536502677 481.16639748133093 445.4017266170522 "></path><path d="M552.8043897388694 278.2534118002912C562.9956989725183 308.6910901873356 505.52495160732633 385.4976519990389 475.7553022814037 442.37496010137113C445.9856529554811 499.25226820370335 448.7835161010113 540.4963662546803 409.9100729744407 551.2644906914854C371.03662984787013 562.0326151282907 323.15633297783677 532.3746089151741 289.16277527386524 494.0619573980364C255.16921756989365 455.74930588089865 242.6707944675831 418.4211300781976 246.74099599537686 367.36376340922385C250.81119752317062 316.30639674024997 271.1797380313349 263.796943129809 308.6997426072751 248.986597386962C346.21974718321525 234.17625164411498 375.98188314080716 290.17685084078096 426.8370179598894 296.2741038435579C477.6921527789716 302.3713568463349 542.6130805052205 247.8157334132468 552.8043897388694 278.2534118002912C562.9956989725183 308.6910901873356 505.52495160732633 385.4976519990389 475.7553022814037 442.37496010137113 "></path><path d="M541.8897730331912 286.9495825028234C551.3531316072938 315.2131410050789 497.9874376253298 386.53351983023197 470.34419182268743 439.34816306811194C442.70094602004497 492.1628063059918 445.2989617980372 530.4608973533275 409.2021931805074 540.4598700446467C373.1054245629776 550.4588427359658 328.6451488979466 522.9192655380718 297.0797024585445 487.3432319864439C265.51425601914235 451.767198434816 253.90857742413965 417.1053209037366 257.6880502713767 369.6949089968323C261.4675231186138 322.284497089928 280.3811678761949 273.52571873737566 315.22117212528224 259.77325483330344C350.06117637436955 246.02079092923123 377.69744547784774 298.0213473261353 424.92007066699546 303.6830822572854C472.1426958561433 309.3448171884354 532.4264144590887 258.6860240005679 541.8897730331912 286.9495825028234C551.3531316072938 315.2131410050789 497.9874376253298 386.53351983023197 470.34419182268743 439.34816306811194 "></path><path d="M530.9751868450912 295.64578372293374C539.7105947596474 321.73522234040036 490.4499541609114 387.5694181790032 464.93311188154917 436.32139655243077C439.41626960218696 485.0733749258585 441.8144380126414 520.425458969553 408.4943439041523 529.655279915386C375.17424979566323 538.885100861219 334.1339953356346 513.4639526785477 304.99666016080187 480.6245370924296C275.8593249859691 447.7851215063115 265.1463908982744 415.78954224685356 268.63513506495474 372.02608510201884C272.1238792316351 328.2626279571841 289.58262823863305 283.2545248625204 321.7426321608675 270.559942797223C353.9026360831019 257.8653607319256 379.4130383324664 305.8658743290678 423.00315389167974 311.0920911885909C466.5932694508931 316.3183080481141 522.2397789305351 269.55634510546713 530.9751868450912 295.64578372293374C539.7105947596474 321.73522234040036 490.4499541609114 387.5694181790032 464.93311188154917 436.32139655243077 "></path><path d="M520.0605853982021 304.34195442546593C528.0680426532119 328.2572731581437 482.9124554377039 388.6052860101963 459.52201668162195 433.29459951917164C436.1315779255399 477.98391302814696 438.3298989684564 510.3899900682002 407.7864793690081 518.8506592685471C377.24305976955975 527.3113284688941 339.6228265145336 504.0086093014454 312.9136026042702 473.90581168083713C286.20437869400683 443.80301406022886 276.38418911362 414.4737330723925 279.58220459974365 374.35723068962733C282.7802200858673 334.24072830686214 298.7840733422821 292.98330047008704 328.2640769376637 281.34660024356447C357.74408053304523 269.70990001704183 381.128615928296 313.71037081442216 421.0862218575749 318.50106960231835C461.04382778685385 323.2917683902146 512.0531281431922 280.42663569278824 520.0605853982021 304.34195442546593C528.0680426532119 328.2572731581437 482.9124554377039 388.6052860101963 459.52201668162195 433.29459951917164 "></path><path d="M509.14601446889105 313.0381556455763C516.4255210643546 334.7793544934651 475.37498723207455 389.6411843589675 454.11095199927274 430.2678330034905C432.84691676647094 470.89448164801354 434.84539044184953 500.3545516844257 407.078645351442 508.0460691392865C379.31190026103445 515.7375865941474 345.11168821101063 494.55329644192125 320.8305755653167 467.1871167868228C296.5494629196227 439.8209371317244 287.6220178465437 413.1579544155095 290.52930465211074 376.6884067948139C293.4365914576777 340.2188591741183 307.9855489635093 302.71210659523183 334.785552232038 292.133288207484C361.5855555005667 281.55446981973614 382.8442240417038 321.5548978173547 419.1693203410482 325.91007853362396C455.49441664039267 330.26525924989323 501.8665078734276 291.29695679768747 509.14601446889105 313.0381556455763C516.4255210643546 334.7793544934651 475.37498723207455 389.6411843589675 454.11095199927274 430.2678330034905 "></path><path d="M498.231413022002 321.7343263481085C504.78296895791914 341.30140531120844 467.8374885088672 390.6770521901606 448.6998567993455 427.24103597023134C429.5622250898238 463.8050197503021 431.3608513976646 490.3190827830729 406.3707808162978 497.2414484924477C381.38071023493103 504.16381420182245 350.60051938990955 485.09795306481897 328.747518008785 460.4683913752304C306.89451662766044 435.8388296856418 298.8598160618894 411.8421452410484 301.47637418689965 379.0195523824224C304.0929323119099 346.1969595237963 317.18699406715837 312.4408822027985 341.30699700883423 302.91994565382544C365.42699995051004 293.3990091048524 384.5598016375334 329.3993943027091 417.25238830694343 333.3190569473514C449.94497497635336 337.23871959199374 491.6798570860849 302.1672473850085 498.231413022002 321.7343263481085C504.78296895791914 341.30140531120844 467.8374885088672 390.6770521901606 448.6998567993455 427.24103597023134 "></path><path d="M487.31678105753474 330.43052756821885C493.14038633390555 347.82348664652994 460.2999592680816 391.7129505389318 443.28873108184007 424.2142694545502C426.2775028955986 456.71558837016863 427.8762818359015 480.2836443992983 405.6628857635755 486.43685836318696C383.4494896912494 492.59007232707575 356.0893200512304 475.6426402052948 336.6644299346752 453.7496964812161C317.23953981812 431.8567527571373 310.09758375965686 410.52636658416543 312.42341320411043 381.35072848760893C314.749242648564 352.17509039105244 326.3884086532293 322.1696883279433 347.82841126805226 313.706633617745C369.2684138828752 305.24357890754675 386.2753487157849 337.24392130564155 415.3354257552604 340.728065878657C444.395502794736 344.2122104516724 481.4931757811639 313.03756848990776 487.31678105753474 330.43052756821885C493.14038633390555 347.82348664652994 460.2999592680816 391.7129505389318 443.28873108184007 424.2142694545502 "></path><path d="M476.4021948694347 339.12669827075104C481.49784948625916 354.34553746427326 452.76247580366316 392.7488183701249 437.87765114070186 421.18747242129103C422.99282647774055 449.62612647245714 424.39175805050564 470.2481754979456 404.95503648722035 475.6322377163482C385.51831492393507 481.0162999347508 361.5781664889184 466.18729682819253 344.5813876369326 447.03097106962366C327.58460878494685 427.8746453110548 321.3353972337915 409.2105574097043 323.37049799768846 383.68187407521737C325.40559876158534 358.15319074073045 335.5898690156675 331.89846393550994 354.34987130363754 324.49329106408646C373.10987359160765 317.088118192663 387.9909415704036 345.08841779099595 413.4185089799447 348.1370442923844C438.8460763894858 351.18567079377294 471.30654025261026 323.90785907722886 476.4021948694347 339.12669827075104C481.49784948625916 354.34553746427326 452.76247580366316 392.7488183701249 437.87765114070186 421.18747242129103 "></path><path d="M465.4875934225456 347.82288423207234C469.8552973798237 360.86760354080565 445.2249770804557 393.7847014601071 432.4665559407746 418.16069064682085C419.7081348010935 442.5366798335347 420.9072190063207 460.212721855382 404.24717195207614 464.8276323282985C387.5871248978316 469.442542801215 367.0669976678173 456.7319687098793 352.49833008040093 440.31226091682026C337.92966249298456 423.8925531237612 332.5731954491372 407.89476349403225 334.31756753247737 386.0130349216149C336.06193961581755 364.13130634919753 344.79131411931655 341.62725480186566 360.87131608043376 335.279963769217C376.95131804155096 328.93267273656824 389.7065191662332 352.93292953513935 411.5015769458399 355.54603796490096C433.29663472544655 358.1591463946625 461.11988946526753 334.77816492333903 465.4875934225456 347.82288423207234C469.8552973798237 360.86760354080565 445.2249770804557 393.7847014601071 432.4665559407746 418.16069064682085 "></path><path d="M454.5730072344455 356.5190701933936C458.2127605321773 367.38966961733803 437.6874936160373 394.8205845500892 427.05547599963637 415.13390887235073C416.42345838323547 435.44723319461224 417.42269522092477 450.1772682128183 403.539322675721 454.0230269402487C389.6559501305172 457.86878566767916 372.55584410550534 447.2766405915661 360.4152877826583 433.59355076401687C348.27473145981133 419.91046093646764 343.81100892327186 406.5789695783602 345.26465232605534 388.3441957680124C346.7182957288388 370.1094219576646 353.9927744817547 351.3560456682214 367.39277611601904 346.0666364743475C380.79277775028334 340.77722728047354 391.4221120208519 360.7774412792828 409.5846601705241 362.95503163741745C427.74720832019636 365.1326219955521 450.9332539367138 345.6484707694492 454.5730072344455 356.5190701933936C458.2127605321773 367.38966961733803 437.6874936160373 394.8205845500892 427.05547599963637 415.13390887235073 "></path><path d="M443.65839052876737 365.21527141350396C446.5701931669528 373.9117509526595 430.1499796340408 395.85648289886046 421.64436554092003 412.10714235666967C413.13875144779934 428.3578018144789 413.93814091795076 440.1418298290437 402.8314428817877 443.218436810988C391.72474484562474 446.2950437929324 378.0446600256152 437.82132773204194 368.3322149673376 426.8748558700026C358.61976990906004 415.9283840079632 355.04879187982846 405.26319092147725 356.21170660205524 390.67537187319897C357.37462132428203 376.08755282492075 363.1942043266147 361.08485179336617 373.91420563402613 356.85332443826707C384.63420694143764 352.6217970831679 393.1376743578924 368.62196828221533 407.6677128776302 370.364040568723C422.197751397368 372.1061128552307 440.74658789058196 356.51879187434844 443.65839052876737 365.21527141350396C446.5701931669528 373.9117509526595 430.1499796340408 395.85648289886046 421.64436554092003 412.10714235666967 "></path><path d="M432.74380434066734 373.91144211603614C434.9276563193064 380.43380177040285 422.6124961696224 396.8923507300535 416.2332855997818 409.0803453234104C409.85407502994127 421.26833991676733 410.4536171325549 430.10636092769096 402.1235936054326 432.41381616414924C393.7935700783103 434.7212714006075 383.5335064633032 428.36598435493966 376.249172669595 420.15613045841013C368.9648388758868 411.9462765618806 366.2866053539631 403.94738174701615 367.1587913956332 393.00651746080746C368.0309774373033 382.06565317459876 372.3956646890528 370.81362740093283 380.4356656696114 367.63998188460846C388.47566665017 364.46633636828415 394.8532672125111 376.4664647675697 405.75079610231444 377.7730189824505C416.6483249921178 379.07957319733123 430.5599523620283 367.38908246166955 432.74380434066734 373.91144211603614C434.9276563193064 380.43380177040285 422.6124961696224 396.8923507300535 416.2332855997818 409.0803453234104 "></path><path d="M421.8292028937782 382.60762807735745C423.2851042128709 386.95586784693523 415.0749974464149 397.9282338200357 410.82219039985455 406.0535635489403C406.5693833532942 414.1788932778449 406.9690780883699 420.0709072851273 401.4157290702884 421.6092107760995C395.8623800522069 423.14751426707164 389.0223376422021 418.91065623662644 384.1661151130633 413.43742030560674C379.3098925839245 407.9641843745871 377.52440356930873 402.63158783134406 378.1058609304221 395.33767830720495C378.6873182915355 388.04376878306584 381.5971097927019 380.54241826728855 386.9571104464076 378.426654589739C392.3171111001133 376.3108909121894 396.56884480834077 384.31097651171314 403.83386406820966 385.18201265496697C411.09888332807856 386.05304879822086 420.3733015746855 378.25938830777966 421.8292028937782 382.60762807735745C423.2851042128709 386.95586784693523 415.0749974464149 397.9282338200357 410.82219039985455 406.0535635489403 "></path><path d="M410.9146014468891 391.3038140386787C411.64255210643546 393.4779339234676 407.5374987232075 398.9641169100178 405.4110951999273 403.0267817744701C403.28469167664707 407.0894466389224 403.48453904418494 410.03545364256365 400.7078645351442 410.80460538804977C397.9311900261034 411.5737571335358 394.5111688211011 409.4553281183132 392.0830575565317 406.7187101528034C389.6549462919623 403.9820921872935 388.7622017846544 401.31579391567203 389.0529304652111 397.6688391536025C389.3436591457678 394.0218843915329 390.79855489635094 390.2712091336443 393.4785552232038 389.2133272948695C396.1585555500567 388.1554454560947 398.28442240417036 392.15548825585654 401.91693203410483 392.5910063274835C405.54944166403925 393.02652439911043 410.1866507873428 389.12969415388983 410.9146014468891 391.3038140386787C411.64255210643546 393.4779339234676 407.5374987232075 398.9641169100178 405.4110951999273 403.0267817744701 "></path></g></svg>