<svg xmlns="http://www.w3.org/2000/svg" version="1.1" xmlns:xlink="http://www.w3.org/1999/xlink" xmlns:svgjs="http://svgjs.dev/svgjs" viewBox="0 0 800 800" opacity="1"><defs><linearGradient x1="50%" y1="0%" x2="50%" y2="100%" id="gggyrate-grad"><stop stop-color="#84aecc" stop-opacity="1" offset="0%"></stop><stop stop-color="#b7d1e6" stop-opacity="1" offset="100%"></stop></linearGradient></defs><g stroke-width="6.5" stroke="url(#gggyrate-grad)" fill="none"><path d="M374.019304630305 25.28779101547167C390.0961778093497 16.00747572853774 409.90388322580657 16.00747572853774 425.98075640485126 25.290389088060408L711.5193261963374 190.14588906057423C727.5961993753817 199.42620434750813 737.5000520836104 216.58127765087465 737.5000520836104 235.1445062973313V564.855506242359C737.5000520836104 583.4187348888156 727.5961993753817 600.573808192182 711.5193261963374 609.8567215517047L425.98075640485126 774.7122215242185C409.90388322580657 783.9925368111525 390.0961778093497 783.9925368111525 374.019304630305 774.7096234516298L88.48073483881899 609.8541234791161C72.4038616597744 600.573808192182 62.50000895154591 583.4187348888156 62.50000895154591 564.855506242359V235.1445062973313C62.50000895154591 216.58127765087465 72.4038616597744 199.42620434750813 88.48073483881899 190.14329098798555L374.019304630305 25.28779101547167Z " transform="rotate(72, 400, 400)" opacity="0.05"></path><path d="M376.9060519511131 66.92245886216841C391.19660588804163 58.673289718227124 408.8034551471146 58.673289718227124 423.09400908404314 66.92476826002508L676.9060711209196 213.46299045781512C691.196625057848 221.7121596017564 700.0000496873845 236.96111364919324 700.0000496873845 253.46176133493253V546.5382057305126C700.0000496873845 563.038853416252 691.196625057848 578.2878074636888 676.9060711209196 586.5392860054867L423.09400908404314 733.0775082032768C408.8034551471146 741.3266773472179 391.19660588804163 741.3266773472179 376.9060519511131 733.0751988054202L123.09398991423666 586.5369766076301C108.8034359773082 578.2878074636888 100.0000113477717 563.038853416252 100.0000113477717 546.5382057305126V253.46176133493253C100.0000113477717 236.96111364919324 108.8034359773082 221.7121596017564 123.09398991423666 213.46068105995857L376.9060519511131 66.92245886216841Z " transform="rotate(64, 400, 400)" opacity="0.17"></path><path d="M379.79279927192124 108.55715722644322C392.2970339667337 101.33913422549463 407.70302706842244 101.33913422549463 420.207261763235 108.55917794956781L642.2928160455019 236.78012237263408C654.7970507403143 243.9981453735827 662.5000472911588 257.34098016508995 662.5000472911588 271.7790468901119V528.2209357362444C662.5000472911588 542.6590024612663 654.7970507403143 556.0018372527736 642.2928160455019 563.2218809768467L420.207261763235 691.442825399913C407.70302706842244 698.6608484008616 392.2970339667337 698.6608484008616 379.79279927192124 691.4408046767884L157.70724498965433 563.2198602537221C145.20301029484193 556.0018372527736 137.5000137439975 542.6590024612663 137.5000137439975 528.2209357362444V271.7790468901119C137.5000137439975 257.34098016508995 145.20301029484193 243.9981453735827 157.70724498965433 236.7781016495096L379.79279927192124 108.55715722644322Z " transform="rotate(56, 400, 400)" opacity="0.29"></path><path d="M382.67951607515124 150.1918555907181C393.39743152784763 144.00497873276214 406.60256847215237 144.00497873276214 417.32048392484876 150.1935876391106L607.6795304525061 260.0972542874531C618.3974459052024 266.2841311454091 625.0000143773548 277.7208466809867 625.0000143773548 290.0963324452912V509.9036657419763C625.0000143773548 522.2791515062808 618.3974459052024 533.7158670418584 607.6795304525061 539.9044759482067L417.32048392484876 649.8081425965493C406.60256847215237 655.9950194545054 393.39743152784763 655.9950194545054 382.67951607515124 649.8064105481569L192.32046954749393 539.9027438998144C181.60255409479754 533.7158670418584 174.99998562264517 522.2791515062808 174.99998562264517 509.9036657419763V290.0963324452912C174.99998562264517 277.7208466809867 181.60255409479754 266.2841311454091 192.32046954749393 260.0955222390607L382.67951607515124 150.1918555907181Z " transform="rotate(48, 400, 400)" opacity="0.41"></path><path d="M385.56626339595937 191.82655395499296C394.4978596065397 186.67082324002965 405.5021403934603 186.67082324002965 414.43373660404063 191.82799732865334L573.0662753770885 283.4143862022721C581.9978715876687 288.57011691723545 587.5000119811291 298.1007131968835 587.5000119811291 308.41361800047054V491.58639574770814C587.5000119811291 501.89930055129514 581.9978715876687 511.4298968309431 573.0662753770885 516.5870709195668L414.43373660404063 608.1734597931857C405.5021403934603 613.3291905081489 394.4978596065397 613.3291905081489 385.56626339595937 608.1720164195252L226.9337246229116 516.5856275459064C218.00212841233127 511.4298968309431 212.49998801887097 501.89930055129514 212.49998801887097 491.58639574770814V308.41361800047054C212.49998801887097 298.1007131968835 218.00212841233127 288.57011691723545 226.9337246229116 283.4129428286118L385.56626339595937 191.82655395499296Z " transform="rotate(40, 400, 400)" opacity="0.53"></path><path d="M388.4530107167675 233.46125231926777C395.59828768523175 229.33666774729716 404.40171231476825 229.33666774729716 411.5469892832325 233.46240701819613L538.4530203016707 306.7315181170911C545.5982972701349 310.8561026890618 550.0000095849032 318.48057971278024 550.0000095849032 326.7309035556499V473.2691257534399C550.0000095849032 481.5194495963096 545.5982972701349 489.14392662002797 538.4530203016707 493.26966589092694L411.5469892832325 566.538776989822C404.40171231476825 570.6633615617925 395.59828768523175 570.6633615617925 388.4530107167675 566.5376222908938L261.54697969832927 493.26851119199864C254.401702729865 489.14392662002797 249.99999041509682 481.5194495963096 249.99999041509682 473.2691257534399V326.7309035556499C249.99999041509682 318.48057971278024 254.401702729865 310.8561026890618 261.54697969832927 306.7303634181629L388.4530107167675 233.46125231926777Z " transform="rotate(32, 400, 400)" opacity="0.64"></path><path d="M391.3397580375756 275.09592779535905C396.6987157639238 272.00248936638104 403.3012842360762 272.00248936638104 408.6602419624244 275.0967938195553L503.83976522625306 330.04862714372655C509.1987229526012 333.14206557270455 512.5000071886774 338.86042334049336 512.5000071886774 345.0481662226456V454.95183287098814C512.5000071886774 461.1395757531404 509.1987229526012 466.8579335209292 503.83976522625306 469.95223797410335L408.6602419624244 524.9040712982746C403.3012842360762 527.9975097272527 396.6987157639238 527.9975097272527 391.3397580375756 524.9032052740785L296.16023477374694 469.9513719499072C290.80127704739874 466.8579335209292 287.4999928113226 461.1395757531404 287.4999928113226 454.95183287098814V345.0481662226456C287.4999928113226 338.86042334049336 290.80127704739874 333.14206557270455 296.16023477374694 330.0477611195303L391.3397580375756 275.09592779535905Z " transform="rotate(24, 400, 400)" opacity="0.76"></path><path d="M394.22650535838375 316.7306337890284C397.7991438426159 314.6683415030431 402.2008561573841 314.6683415030431 405.77349464161625 316.7312111384926L469.22651015083534 353.3657666879401C472.79914863506747 355.42805897392543 475.0000047924516 359.24029748578465 475.0000047924516 363.3654594072195V436.63457050611447C475.0000047924516 440.75973242754935 472.79914863506747 444.5719709394085 469.22651015083534 446.634840574858L405.77349464161625 483.26939612430556C402.2008561573841 485.3316884102908 397.7991438426159 485.3316884102908 394.22650535838375 483.2688187748414L330.77348984916466 446.63426322539385C327.20085136493253 444.5719709394085 324.9999952075484 440.75973242754935 324.9999952075484 436.63457050611447V363.3654594072195C324.9999952075484 359.24029748578465 327.20085136493253 355.42805897392543 330.77348984916466 353.36518933847594L394.22650535838375 316.7306337890284Z " transform="rotate(16, 400, 400)" opacity="0.88"></path><path d="M397.1132526791919 358.36530926511966C398.89957192130794 357.33416312212705 401.10042807869206 357.33416312212705 402.8867473208081 358.3655979398518L434.61325507541767 376.6828757145755C436.39957431753373 377.7140218575682 437.5000023962258 379.62014111349777 437.5000023962258 381.6827220742152V418.31727762366273C437.5000023962258 420.37985858438014 436.39957431753373 422.2859778403097 434.61325507541767 423.31741265803447L402.8867473208081 441.63469043275825C401.10042807869206 442.66583657575086 398.89957192130794 442.66583657575086 397.1132526791919 441.6344017580262L365.38674492458233 423.3171239833024C363.60042568246627 422.2859778403097 362.4999976037742 420.37985858438014 362.4999976037742 418.31727762366273V381.6827220742152C362.4999976037742 379.62014111349777 363.60042568246627 377.7140218575682 365.38674492458233 376.68258703984344L397.1132526791919 358.36530926511966Z " transform="rotate(8, 400, 400)" opacity="1.00"></path></g></svg>